<svg class="w-[110%] h-100" viewBox="0 0 1512 132" fill="none" xmlns="http://www.w3.org/2000/svg">
<path d="M-19 0L12.8958 11.0145C44.7917 21.6173 108.583 44.2639 172.375 43.9551C236.167 44.2639 299.958 21.6173 363.75 27.4848C427.542 32.9406 491.333 65.8812 555.125 71.337C618.917 77.2045 682.708 54.5578 746.5 43.9551C810.292 32.9406 874.083 32.9406 937.875 38.3964C1001.67 44.2639 1065.46 54.5578 1129.25 43.9551C1193.04 32.9406 1256.83 0 1320.62 0C1384.42 0 1448.21 32.9406 1480.1 49.4109L1512 65.8812V131.762H1480.1C1448.21 131.762 1384.42 131.762 1320.62 131.762C1256.83 131.762 1193.04 131.762 1129.25 131.762C1065.46 131.762 1001.67 131.762 937.875 131.762C874.083 131.762 810.292 131.762 746.5 131.762C682.708 131.762 618.917 131.762 555.125 131.762C491.333 131.762 427.542 131.762 363.75 131.762C299.958 131.762 236.167 131.762 172.375 131.762C108.583 131.762 44.7917 131.762 12.8958 131.762H-19V0Z" fill="#0C3B2E"/>
</svg>
